<?xml version="1.0" encoding="UTF-8" standalone="no"?>
<!-- Created with Inkscape (http://www.inkscape.org/) -->

<svg
   width="75mm"
   height="75mm"
   viewBox="0 0 75 75"
   version="1.1"
   id="svg5"
   inkscape:version="1.1.1 (3bf5ae0d25, 2021-09-20)"
   sodipodi:docname="black_pawn.svg"
   xmlns:inkscape="http://www.inkscape.org/namespaces/inkscape"
   xmlns:sodipodi="http://sodipodi.sourceforge.net/DTD/sodipodi-0.dtd"
   xmlns="http://www.w3.org/2000/svg"
   xmlns:svg="http://www.w3.org/2000/svg">
  <sodipodi:namedview
     id="namedview7"
     pagecolor="#ffffff"
     bordercolor="#666666"
     borderopacity="1.0"
     inkscape:pageshadow="2"
     inkscape:pageopacity="0.0"
     inkscape:pagecheckerboard="0"
     inkscape:document-units="px"
     showgrid="false"
     inkscape:zoom="1.4142136"
     inkscape:cx="286.02469"
     inkscape:cy="173.59471"
     inkscape:window-width="1920"
     inkscape:window-height="1057"
     inkscape:window-x="-8"
     inkscape:window-y="-8"
     inkscape:window-maximized="1"
     inkscape:current-layer="layer1" />
  <defs
     id="defs2" />
  <g
     inkscape:label="Layer 1"
     inkscape:groupmode="layer"
     id="layer1">
    <circle
       style="fill:none;stroke:#000000;stroke-width:0.264583"
       id="path166"
       sodipodi:type="arc"
       sodipodi:cx="19.573252"
       sodipodi:cy="-37.5457"
       sodipodi:rx="11.494539"
       sodipodi:ry="11.494539"
       sodipodi:start="0.52759507"
       sodipodi:end="5.7630823"
       sodipodi:open="true"
       sodipodi:arc-type="arc"
       d="m 29.504768,-31.758695 a 11.494539,11.494539 0 0 1 -12.949481,5.304267 11.494539,11.494539 0 0 1 -8.4764939,-11.134331 11.494539,11.494539 0 0 1 8.5596749,-11.070513 11.494539,11.494539 0 0 1 12.909377,5.401136"
       transform="rotate(90)" />
    <path
       style="fill:none;stroke:#000000;stroke-width:0.264583"
       d="m 31.452965,32.168434 c 0,0 1.767372,15.114742 -6.968485,20.974849 -5.982123,4.012873 -5.635672,7.517275 -5.635672,7.517275 -0.10335,2.37101 0.620907,2.359453 3.104192,3.595404 -1.182212,0.06687 -2.914171,0.01359 -2.997654,0.360705 -0.264929,1.101521 0.03223,2.304621 0.03223,2.304621 h 18.512423"
       id="path281"
       sodipodi:nodetypes="csccscc" />
    <path
       style="fill:none;stroke:#000000;stroke-width:0.264583"
       d="m 31.834436,29.521767 c 0,0 -6.672471,0.498798 -6.70288,0.833297 -0.03041,0.334497 -0.243271,0.881857 -0.03041,1.064308 0.212862,0.182454 6.009607,0.868032 6.492378,0.864817"
       id="path2804"
       sodipodi:nodetypes="cssc" />
    <path
       style="fill:none;stroke:#000000;stroke-width:0.264583"
       d="m 43.547033,32.168434 c 0,0 -1.767372,15.114742 6.968486,20.974849 5.982123,4.012873 5.635672,7.517275 5.635672,7.517275 0.10335,2.37101 -0.620907,2.359453 -3.104192,3.595404 1.182212,0.06687 2.914171,0.01359 2.997654,0.360705 0.264929,1.101521 -0.03223,2.304621 -0.03223,2.304621 H 37.499999"
       id="path281-5"
       sodipodi:nodetypes="csccscc" />
    <path
       style="fill:none;stroke:#000000;stroke-width:0.264583"
       d="m 43.165562,29.521767 c 0,0 6.672472,0.498798 6.702881,0.833297 0.03041,0.334497 0.243271,0.881857 0.03041,1.064308 -0.212862,0.182454 -6.009608,0.868032 -6.492379,0.864817"
       id="path2804-4"
       sodipodi:nodetypes="cssc" />
    <path
       style="fill:#000000;stroke:#000000;stroke-width:0.25"
       d="m 141.03223,30.927734 c -14.3669,0.194954 -28.34338,8.134334 -35.75595,20.463749 -4.10213,6.756964 -6.62502,14.648807 -6.22501,22.609004 -0.438288,9.010065 2.82013,17.908363 7.9751,25.200685 3.36021,4.860628 7.98662,8.671258 12.85644,11.919428 0.8246,0.64239 -0.31414,0.88978 -0.83301,0.87403 -7.68777,0.82713 -15.45712,1.19045 -23.058101,2.65527 -1.286499,0.42465 -0.879202,2.19841 -0.992188,3.25244 0.09729,1.15452 1.836009,0.65626 2.587129,1.03032 7.0886,1.19641 14.26014,1.82529 21.37234,2.81783 0.86174,0.3962 0.31905,1.74677 0.53379,2.5043 0.0567,7.77181 0.23008,15.58135 -0.37851,23.33603 -1.77472,15.5592 -5.8175,31.55041 -15.8877,43.92969 -5.420805,7.17702 -13.744177,11.13225 -20.129076,17.29115 -5.283227,4.92822 -10.203206,11.04343 -11.279931,18.39872 -0.09594,2.93021 -0.609294,6.16653 0.82063,8.86286 2.149351,2.9399 5.9131,3.99562 8.94828,5.74452 1.053953,0.58549 3.735078,1.50929 1.136681,1.39464 -3.503551,0.36729 -7.151048,-0.0354 -10.563476,0.91406 -0.682315,1.15221 -0.302441,2.74301 -0.461914,4.05664 0.05425,1.41052 -0.115103,3.01466 0.463379,4.26709 46.381997,0 92.763997,0 139.145997,0 0.72868,-2.0311 0.49281,-4.45031 0.43085,-6.64573 0.0781,-1.00274 -0.45771,-2.01936 -1.5871,-1.97975 -3.60141,-0.51773 -7.25934,-0.35888 -10.87354,-0.74707 3.53549,-1.96341 7.55304,-3.23716 10.66211,-5.88526 2.3675,-2.53668 1.81827,-6.25905 1.81592,-9.43359 -0.97571,-7.53276 -6.00146,-13.78905 -11.31445,-18.89405 -5.50332,-5.45148 -12.61693,-8.95399 -17.86447,-14.69065 -9.37438,-9.9323 -14.25549,-23.2365 -16.73729,-36.46149 -2.2666,-11.8419 -2.48133,-23.98818 -1.7249,-36.00264 7.94212,-0.94305 15.94774,-1.59651 23.79638,-3.16211 1.2438,-0.49319 0.3819,-2.16365 0.26612,-3.11572 -0.42948,-1.21812 -2.18032,-0.85845 -3.16753,-1.23914 -7.16599,-1.10767 -14.46555,-1.59211 -21.6479,-2.25159 -0.0301,-1.27948 1.80284,-1.4697 2.55713,-2.22949 11.4116,-7.5474 18.73709,-20.815625 19.00054,-34.499413 0.49725,-13.715125 -6.10504,-27.40242 -17.11676,-35.587009 -7.61575,-5.795995 -17.19922,-8.921228 -26.77001,-8.697754 z"
       id="path14322"
       transform="scale(0.26458333)" />
  </g>
</svg>
