<?xml version="1.0" encoding="UTF-8" standalone="no"?>
<!-- Created with Inkscape (http://www.inkscape.org/) -->

<svg
   width="75mm"
   height="75mm"
   viewBox="0 0 75 75"
   version="1.1"
   id="svg5"
   inkscape:version="1.1.1 (3bf5ae0d25, 2021-09-20)"
   sodipodi:docname="white_pawn.svg"
   xmlns:inkscape="http://www.inkscape.org/namespaces/inkscape"
   xmlns:sodipodi="http://sodipodi.sourceforge.net/DTD/sodipodi-0.dtd"
   xmlns="http://www.w3.org/2000/svg"
   xmlns:svg="http://www.w3.org/2000/svg">
  <sodipodi:namedview
     id="namedview7"
     pagecolor="#ffffff"
     bordercolor="#666666"
     borderopacity="1.0"
     inkscape:pageshadow="2"
     inkscape:pageopacity="0.0"
     inkscape:pagecheckerboard="0"
     inkscape:document-units="px"
     showgrid="false"
     inkscape:zoom="2.8284272"
     inkscape:cx="131.34508"
     inkscape:cy="135.58772"
     inkscape:window-width="1920"
     inkscape:window-height="1057"
     inkscape:window-x="-8"
     inkscape:window-y="-8"
     inkscape:window-maximized="1"
     inkscape:current-layer="layer1" />
  <defs
     id="defs2" />
  <g
     inkscape:label="Layer 1"
     inkscape:groupmode="layer"
     id="layer1">
    <path
       style="fill:#ffffff;stroke:#000000;stroke-width:6.47700003;stroke-opacity:1;stroke-miterlimit:4;stroke-dasharray:none;stroke-linejoin:round;stroke-linecap:round"
       d="m 141.49524,30.949732 c -11.3034,0.004 -22.46902,4.763382 -30.3493,12.858174 -8.25373,8.3582 -12.871893,20.245519 -12.206925,31.994079 0.198236,8.488714 3.241325,16.840775 8.245325,23.671504 3.20856,4.426191 7.30933,8.152361 11.91102,11.088591 0.36848,0.311 1.18705,0.74388 1.01025,1.29165 -3.5683,0.52503 -7.20504,0.59955 -10.79183,1.03075 -4.46701,0.51849 -8.99234,0.78392 -13.385838,1.7773 -1.079135,0.44132 -0.798339,1.92899 -1.052028,2.85122 -0.245124,1.04994 1.047885,1.12558 1.749814,1.27403 7.472502,1.35392 15.038322,2.1057 22.584952,2.91302 0.75402,7.56871 0.64236,15.24864 0.12015,22.8332 -1.13986,14.35595 -4.38527,28.92339 -12.05113,41.30112 -4.00518,6.54898 -9.595094,12.08553 -16.008724,16.32252 -7.164618,5.11785 -14.087591,11.24642 -17.828891,19.38712 -1.506163,3.09791 -2.03738,6.56595 -1.814723,9.98684 0.02926,2.35304 0.540729,5.03483 2.691011,6.38675 3.042879,2.09698 6.577221,3.37958 9.759316,5.1911 -3.781934,0.39273 -7.641498,0.11254 -11.38656,0.82242 -1.148127,0.3663 -0.904743,1.9193 -1.006236,2.85673 0.06554,1.89757 -0.09893,3.85548 0.378196,5.70727 1.501138,0.33386 3.207927,0.0453 4.787472,0.14192 44.813239,0 89.626479,0 134.439709,0 0.52314,-1.03841 0.41262,-2.42623 0.56486,-3.62083 0.0361,-1.60641 0.0551,-3.32098 -0.48303,-4.83926 -1.61854,-0.72196 -3.51008,-0.52758 -5.24529,-0.72367 -2.19482,-0.16425 -4.41971,-0.0344 -6.59115,-0.36874 3.19446,-1.96624 6.85742,-3.15918 9.89604,-5.39411 2.24096,-1.71999 2.49277,-4.74748 2.45601,-7.35351 0.21671,-6.52437 -3.29087,-12.49555 -7.42332,-17.28142 -4.17187,-4.87032 -9.21998,-8.88132 -14.50247,-12.47771 -7.14835,-5.09699 -12.9026,-12.09746 -16.69314,-20.00109 -6.25597,-12.38791 -8.63231,-26.34641 -9.396,-40.08608 -0.31768,-6.26641 -0.21928,-12.55731 0.32032,-18.80472 7.89108,-0.78511 15.78203,-1.69022 23.59899,-3.03007 1.19351,-0.29121 0.63917,-1.83061 0.54853,-2.66569 0.12848,-1.06688 -0.57444,-1.4976 -1.53357,-1.51653 -7.63543,-1.36623 -15.40044,-1.7476 -23.10389,-2.54289 -0.56795,0.13655 -0.60838,-0.81207 -0.0991,-0.79757 4.83769,-2.65385 8.9228,-6.53831 12.38324,-10.7994 5.10765,-6.602663 8.25161,-14.735386 8.85512,-23.061906 0.2081,-4.559287 0.0949,-9.179231 -1.13144,-13.605295 -2.62441,-10.940538 -9.7768,-20.645664 -19.38204,-26.483439 -6.80916,-4.230187 -14.83579,-6.319413 -22.83371,-6.233378 z"
       id="path14445"
       transform="scale(0.26458333)" />
  </g>
</svg>
